# xmcd CD database file
#
# Track frame offsets:
#	150
#	18166
#	36895
#	59932
#	84146
#	115958
#	139078
#	159323
#	179799
#	194165
#	210238
#	228171
#	242876
#
# Disc length: 3348 seconds
#
# Revision: 0
# Processed by: cddbd v1.5.1PL0 Copyright (c) Steve Scherf et al.
# Submitted via: CDex 1.51
#
DISCID=b30d120d
DTITLE=Pierre Christophe - Bayard by us II
DYEAR=2005
DGENRE=Jazz
TTITLE0=Spannish Tinge #2
TTITLE1=Night Leaves
TTITLE2=Proverbs
TTITLE3=Darryl
TTITLE4=To them to us
TTITLE5=Tribute to the Ticklers
TTITLE6=Diane's Melody
TTITLE7=Denise
TTITLE8=One Note to my Wife
TTITLE9=Snow Flakes
TTITLE10=Garnerin' a lot
TTITLE11=Randi Hultin, Oslo, Norway
TTITLE12=Tribute to Eubie Blake
EXTD=YEAR: 2005
EXTT0=
EXTT1=
EXTT2=
EXTT3=
EXTT4=
EXTT5=
EXTT6=
EXTT7=
EXTT8=
EXTT9=
EXTT10=
EXTT11=
EXTT12=
PLAYORDER=
